<?xml version="1.0" standalone="no"?>
<!DOCTYPE svg PUBLIC "-//W3C//DTD SVG 20010904//EN"
 "http://www.w3.org/TR/2001/REC-SVG-20010904/DTD/svg10.dtd">
<svg version="1.0" xmlns="http://www.w3.org/2000/svg"
 width="4323.000000pt" height="725.000000pt" viewBox="0 0 4323.000000 725.000000"
 preserveAspectRatio="xMidYMid meet">

<g transform="translate(0.000000,725.000000) scale(0.100000,-0.100000)"
fill="#000000" stroke="none">
<path d="M6967 7239 c-42 -4 -124 -19 -182 -33 -705 -170 -1266 -822 -1437
-1667 -20 -99 -23 -143 -23 -339 1 -194 4 -238 22 -322 58 -258 156 -450 312
-611 128 -132 275 -218 461 -268 114 -31 388 -34 520 -6 332 71 655 263 928
552 171 181 290 355 403 590 148 307 211 578 212 905 0 260 -38 450 -128 636
-195 403 -603 614 -1088 563z"/>
<path d="M16918 5259 c-276 -16 -587 -74 -771 -143 -459 -175 -724 -490 -825
-981 -32 -156 -44 -293 -44 -510 0 -217 12 -354 44 -510 101 -491 366 -806
825 -981 461 -175 1342 -202 1907 -60 624 158 945 520 1040 1174 l6 42 -501
-2 -502 -3 -17 -50 c-72 -210 -217 -356 -429 -430 -210 -74 -518 -92 -819 -49
-342 49 -528 200 -601 489 -53 212 -54 533 -1 750 58 235 207 392 441 463 207
64 604 76 839 27 271 -57 439 -181 541 -400 l40 -85 499 0 c430 0 500 2 500
14 0 38 -44 237 -70 317 -153 468 -485 743 -1041 863 -292 64 -679 87 -1061
65z"/>
<path d="M29249 5259 c-764 -44 -1233 -278 -1466 -735 -126 -246 -177 -504
-177 -899 0 -395 51 -653 177 -899 217 -424 620 -648 1298 -722 187 -21 664
-24 844 -5 539 55 866 177 1115 417 203 196 318 438 374 792 l13 82 -502 0
-502 0 -7 -32 c-4 -18 -25 -71 -48 -118 -58 -116 -169 -229 -283 -287 -170
-87 -324 -116 -610 -116 -638 1 -888 180 -946 674 -15 132 -7 416 16 529 62
314 230 475 564 545 168 35 443 41 641 14 309 -42 512 -174 625 -405 l46 -94
500 0 c308 0 499 4 499 9 0 36 -47 241 -75 325 -171 524 -578 812 -1270 900
-250 32 -547 41 -826 25z"/>
<path d="M1640 5255 c-8 -2 -49 -9 -90 -15 -99 -16 -273 -72 -385 -124 -390
-183 -731 -536 -934 -967 -98 -209 -175 -454 -207 -657 -22 -141 -23 -404 -1
-532 47 -279 158 -509 327 -680 125 -127 276 -214 450 -261 73 -20 109 -23
265 -24 252 0 382 29 612 140 563 269 1019 873 1152 1527 46 221 52 503 17
701 -86 477 -399 805 -843 882 -74 13 -314 19 -363 10z"/>
<path d="M10145 5244 c-428 -80 -824 -333 -1104 -708 -302 -403 -477 -933
-458 -1386 17 -383 146 -690 380 -905 185 -171 408 -255 678 -255 216 0 406
45 614 145 190 92 332 193 503 360 403 391 638 882 683 1429 25 309 -36 626
-161 841 -137 233 -348 391 -618 462 -124 33 -388 41 -517 17z"/>
<path d="M19930 3633 c-392 -868 -715 -1581 -717 -1585 -2 -5 225 -8 504 -8
l509 0 118 285 118 285 768 0 c602 0 770 -3 777 -12 5 -7 61 -136 124 -285
l114 -273 503 0 c276 0 502 3 502 6 0 4 -1241 2766 -1387 3087 l-36 77 -591 0
-592 0 -714 -1577z m1553 226 c137 -325 246 -593 244 -595 -2 -2 -227 -3 -500
-2 l-496 3 246 593 c136 325 249 592 252 592 3 0 118 -266 254 -591z"/>
<path d="M23680 3625 l0 -1585 475 0 475 0 0 485 0 485 408 0 407 0 370 -485
369 -485 554 0 c440 0 552 3 545 13 -4 6 -227 268 -496 580 -269 313 -487 571
-484 573 2 2 44 16 93 30 106 30 248 96 331 152 239 162 360 469 339 854 -27
478 -295 774 -810 898 -276 66 -220 64 -1453 67 l-1123 4 0 -1586z m2122 828
c183 -51 269 -136 298 -294 21 -114 -5 -247 -65 -324 -65 -87 -194 -139 -383
-155 -67 -6 -310 -10 -567 -8 l-450 3 -3 403 -2 403 547 -3 c522 -4 552 -5
625 -25z"/>
<path d="M32911 5193 c-5 -10 -325 -715 -711 -1568 -386 -852 -706 -1558 -711
-1568 -9 -16 16 -17 501 -15 l511 3 114 274 c63 151 118 278 123 283 4 4 354
7 776 6 l767 -3 118 -280 118 -280 506 -3 506 -2 -85 187 c-46 104 -367 816
-712 1583 l-628 1395 -592 3 c-555 2 -592 1 -601 -15z m849 -1343 c133 -316
244 -578 247 -582 2 -5 -223 -8 -500 -8 l-504 0 233 563 c279 671 263 636 274
617 4 -8 117 -274 250 -590z"/>
<path d="M35950 3625 l0 -1585 938 0 c550 0 995 4 1077 10 745 56 1202 288
1427 725 59 116 90 204 121 345 37 169 48 281 48 505 0 224 -11 336 -48 505
-147 667 -632 1002 -1548 1070 -82 6 -527 10 -1077 10 l-938 0 0 -1585z m2030
811 c257 -50 432 -159 517 -321 101 -192 129 -543 64 -796 -80 -312 -300 -475
-699 -518 -59 -6 -289 -11 -542 -11 l-440 0 0 836 0 836 508 -5 c417 -4 522
-7 592 -21z"/>
<path d="M40100 3625 l0 -1585 1565 0 1565 0 0 380 0 380 -1100 0 -1100 0 0
265 0 265 955 0 955 0 -2 288 -3 287 -952 3 -953 2 0 285 0 285 1065 0 1065 0
0 365 0 365 -1530 0 -1530 0 0 -1585z"/>
<path d="M4885 3274 c-366 -54 -680 -213 -963 -488 -216 -210 -378 -453 -496
-741 -219 -537 -229 -1054 -30 -1458 61 -124 116 -200 208 -293 247 -248 575
-338 966 -264 128 24 232 60 367 125 396 193 747 557 964 1000 146 299 219
607 219 928 0 288 -63 535 -186 735 -65 105 -216 253 -319 313 -177 103 -315
139 -540 144 -88 2 -173 1 -190 -1z"/>
</g>
</svg>
